<svg width="28" height="28" viewBox="0 0 28 28" fill="none" xmlns="http://www.w3.org/2000/svg">
<circle cx="14" cy="14" r="14" fill="#D7F5FE"/>
<path d="M22.3334 17.4917C22.3334 20.525 20.525 22.3334 17.4917 22.3334H16.5C16.0417 22.3334 15.6667 21.9584 15.6667 21.5V16.6917C15.6667 16.4667 15.85 16.275 16.075 16.275L17.5417 16.25C17.6584 16.2417 17.7584 16.1584 17.7834 16.0417L18.075 14.45C18.1 14.3 17.9834 14.1584 17.825 14.1584L16.05 14.1834C15.8167 14.1834 15.6334 14 15.625 13.775L15.5917 11.7334C15.5917 11.6 15.7 11.4834 15.8417 11.4834L17.8417 11.45C17.9833 11.45 18.0917 11.3417 18.0917 11.2L18.0583 9.20001C18.0583 9.05835 17.95 8.95002 17.8084 8.95002L15.5583 8.98336C14.175 9.00836 13.075 10.1417 13.1 11.525L13.1417 13.8167C13.15 14.05 12.9667 14.2334 12.7334 14.2417L11.7334 14.2584C11.5917 14.2584 11.4834 14.3667 11.4834 14.5083L11.5084 16.0917C11.5084 16.2334 11.6167 16.3417 11.7584 16.3417L12.7584 16.325C12.9917 16.325 13.175 16.5084 13.1833 16.7334L13.2583 21.4834C13.2667 21.95 12.8917 22.3334 12.425 22.3334H10.5084C7.47502 22.3334 5.66669 20.525 5.66669 17.4833V10.5084C5.66669 7.47502 7.47502 5.66669 10.5084 5.66669H17.4917C20.525 5.66669 22.3334 7.47502 22.3334 10.5084V17.4917Z" fill="url(#paint0_linear_33_159)"/>
<defs>
<linearGradient id="paint0_linear_33_159" x1="5.66669" y1="14" x2="22.3334" y2="14" gradientUnits="userSpaceOnUse">
<stop stop-color="#00C6FB"/>
<stop offset="1" stop-color="#005BEA"/>
</linearGradient>
</defs>
</svg>
