<svg width="28" height="28" viewBox="0 0 28 28" fill="none" xmlns="http://www.w3.org/2000/svg">
<circle cx="14" cy="14" r="14" fill="#EFDBDD"/>
<path d="M17.4917 5.66669H10.5084C7.47502 5.66669 5.66669 7.47502 5.66669 10.5084V17.4834C5.66669 20.525 7.47502 22.3334 10.5084 22.3334H17.4834C20.5167 22.3334 22.325 20.525 22.325 17.4917V10.5084C22.3334 7.47502 20.525 5.66669 17.4917 5.66669ZM14 17.2334C12.2167 17.2334 10.7667 15.7834 10.7667 14C10.7667 12.2167 12.2167 10.7667 14 10.7667C15.7834 10.7667 17.2334 12.2167 17.2334 14C17.2334 15.7834 15.7834 17.2334 14 17.2334ZM18.9334 9.73335C18.8917 9.83335 18.8334 9.92502 18.7584 10.0084C18.675 10.0834 18.5834 10.1417 18.4834 10.1834C18.3834 10.225 18.275 10.25 18.1667 10.25C17.9417 10.25 17.7334 10.1667 17.575 10.0084C17.5 9.92502 17.4417 9.83335 17.4 9.73335C17.3584 9.63335 17.3334 9.52502 17.3334 9.41669C17.3334 9.30835 17.3584 9.20002 17.4 9.10002C17.4417 8.99169 17.5 8.90835 17.575 8.82502C17.7667 8.63335 18.0584 8.54169 18.325 8.60002C18.3834 8.60835 18.4334 8.62502 18.4834 8.65002C18.5334 8.66669 18.5834 8.69169 18.6334 8.72502C18.675 8.75002 18.7167 8.79169 18.7584 8.82502C18.8334 8.90835 18.8917 8.99169 18.9334 9.10002C18.975 9.20002 19 9.30835 19 9.41669C19 9.52502 18.975 9.63335 18.9334 9.73335Z" fill="url(#paint0_linear_33_166)"/>
<defs>
<linearGradient id="paint0_linear_33_166" x1="5.66669" y1="14" x2="22.325" y2="14" gradientUnits="userSpaceOnUse">
<stop stop-color="#F43B47"/>
<stop offset="1" stop-color="#453A94"/>
</linearGradient>
</defs>
</svg>
