<svg width="28" height="28" viewBox="0 0 28 28" fill="none" xmlns="http://www.w3.org/2000/svg">
<circle cx="14" cy="14" r="14" fill="#DDFFEB"/>
<path d="M22.3167 13.5083C22.0333 8.67496 17.6417 4.94997 12.5833 5.7833C9.10001 6.3583 6.30835 9.18328 5.76669 12.6666C5.45002 14.6833 5.86671 16.5916 6.77504 18.1666L6.03336 20.925C5.86669 21.55 6.44168 22.1166 7.05834 21.9416L9.77502 21.1916C11.0084 21.9166 12.45 22.3333 13.9917 22.3333C18.6917 22.3333 22.5917 18.1916 22.3167 13.5083ZM18.0667 17.1C17.9917 17.25 17.9 17.3916 17.7833 17.525C17.575 17.75 17.35 17.9166 17.1 18.0166C16.85 18.125 16.575 18.175 16.2833 18.175C15.8583 18.175 15.4 18.075 14.925 17.8666C14.4417 17.6583 13.9667 17.3833 13.4917 17.0416C13.0084 16.6916 12.5584 16.3 12.125 15.875C11.6917 15.4416 11.3083 14.9833 10.9583 14.5083C10.6167 14.0333 10.3417 13.5583 10.1417 13.0833C9.94169 12.6083 9.8417 12.15 9.8417 11.7166C9.8417 11.4333 9.89169 11.1583 9.99169 10.9083C10.0917 10.65 10.25 10.4166 10.475 10.2083C10.7417 9.94163 11.0334 9.81663 11.3417 9.81663C11.4584 9.81663 11.575 9.84163 11.6833 9.89163C11.7917 9.94163 11.8917 10.0166 11.9667 10.125L12.9333 11.4916C13.0083 11.5999 13.0667 11.6916 13.1 11.7833C13.1417 11.875 13.1583 11.9583 13.1583 12.0416C13.1583 12.1416 13.125 12.2416 13.0667 12.3416C13.0084 12.4416 12.9333 12.5416 12.8333 12.6416L12.5167 12.9749C12.4667 13.0249 12.45 13.075 12.45 13.1416C12.45 13.175 12.4583 13.2083 12.4667 13.2416C12.4833 13.275 12.4917 13.3 12.5 13.325C12.575 13.4666 12.7083 13.6416 12.8917 13.8583C13.0833 14.0749 13.2834 14.3 13.5 14.5166C13.725 14.7416 13.9417 14.9416 14.1667 15.1333C14.3834 15.3166 14.5667 15.4416 14.7083 15.5166C14.7333 15.525 14.7584 15.5416 14.7834 15.5499C14.8167 15.5666 14.85 15.5666 14.8917 15.5666C14.9667 15.5666 15.0167 15.5416 15.0667 15.4916L15.3833 15.175C15.4917 15.0666 15.5917 14.9916 15.6834 14.9416C15.7834 14.8833 15.875 14.8499 15.9834 14.8499C16.0667 14.8499 16.15 14.8666 16.2417 14.9083C16.3334 14.95 16.4333 15 16.5333 15.075L17.9167 16.0583C18.025 16.1333 18.1 16.225 18.15 16.325C18.1917 16.4333 18.2167 16.5333 18.2167 16.6499C18.1667 16.7916 18.1334 16.95 18.0667 17.1Z" fill="url(#paint0_linear_33_172)"/>
<defs>
<linearGradient id="paint0_linear_33_172" x1="5.66156" y1="13.9998" x2="22.3304" y2="13.9998" gradientUnits="userSpaceOnUse">
<stop stop-color="#43E97B"/>
<stop offset="1" stop-color="#38F9D7"/>
</linearGradient>
</defs>
</svg>
